<svg width="178" height="87" viewBox="0 0 178 87" fill="none" xmlns="http://www.w3.org/2000/svg">
<path fill-rule="evenodd" clip-rule="evenodd" d="M26.7105 0C11.9587 0 0 11.9587 0 26.7105C0 41.4623 11.9587 53.4211 26.7105 53.4211H33.116C32.5345 55.6127 32.2246 57.915 32.2246 60.2896C32.2246 75.0414 44.1833 87.0002 58.9351 87.0002H151.29C166.042 87.0002 178 75.0414 178 60.2896C178 45.5378 166.042 33.5791 151.29 33.5791H144.884C145.466 31.3874 145.776 29.0852 145.776 26.7105C145.776 11.9587 133.817 0 119.065 0H26.7105Z" fill="#DD1414"/>
<path d="M119.69 44.2631L73.6552 70.6997V17.8266L119.69 44.2631Z" fill="#F6F6F6"/>
</svg>
